<svg id="icon-instagram-3" xmlns="http://www.w3.org/2000/svg" width="23.998" height="23.998" viewBox="0 0 23.998 23.998">
  <path id="パス_24" data-name="パス 24" d="M17.5,0H6.5A6.5,6.5,0,0,0,0,6.5V17.5A6.5,6.5,0,0,0,6.5,24H17.5A6.5,6.5,0,0,0,24,17.5V6.5A6.5,6.5,0,0,0,17.5,0Zm5.089,17.5A5.1,5.1,0,0,1,17.5,22.591H6.5A5.1,5.1,0,0,1,1.407,17.5V6.5A5.1,5.1,0,0,1,6.5,1.407H17.5A5.1,5.1,0,0,1,22.591,6.5Zm0,0" fill="#003a73"/>
  <path id="パス_25" data-name="パス 25" d="M122.566,116a6.562,6.562,0,1,0,6.562,6.562A6.569,6.569,0,0,0,122.566,116Zm0,11.717a5.155,5.155,0,1,1,5.155-5.155A5.161,5.161,0,0,1,122.566,127.721Zm0,0" transform="translate(-110.567 -110.567)" fill="#003a73"/>
  <path id="パス_26" data-name="パス 26" d="M359.915,66.285a1.939,1.939,0,1,0,1.939,1.939A1.941,1.941,0,0,0,359.915,66.285Zm0,2.471a.532.532,0,1,1,.532-.532A.533.533,0,0,1,359.915,68.756Zm0,0" transform="translate(-341.198 -63.178)" fill="#003a73"/>
</svg>
